<svg xmlns="http://www.w3.org/2000/svg" viewBox="0 0 62.8 63"><defs><style>.cls-1{fill:#727270;}.cls-1,.cls-2{fill-rule:evenodd;}.cls-2{fill:#67cdfd;}</style></defs><title>Recurso 1</title><g id="Capa_2" data-name="Capa 2"><g id="_17" data-name="17"><path class="cls-1" d="M59.45,48.85c2.2,2.68,3.34,6.69,3.34,14.15H0C0,42.35,7.74,47.52,23.13,38.72V35.28c-2.77-1.91-3.35-5.35-4.21-9h-.1c-.48,0-.76-.67-.76-1.44v-.29a7.18,7.18,0,0,1-.67-1.81c-.38-1.05-1.34-3.35-.38-4.3a.79.79,0,0,1,1.25.09C17.11,12.63,15.68,5,23.71,2.69c0-5.07,19-2.77,21.32,5.26,1,3.06-.29,10.51-.29,10.51.29-.48.57-.67,1.05-.39,1,.77-.1,3.73-.38,4.69a11,11,0,0,1-.76,1.91v.19c0,.76-.29,1.44-.76,1.44a23.73,23.73,0,0,1-1.25,4.21A12.52,12.52,0,0,0,51,52.3a11.83,11.83,0,0,0,8.5-3.44Z"/><path class="cls-1" d="M51,28.78h0a10.66,10.66,0,1,0,10.7,10.71A10.61,10.61,0,0,0,51,28.78Z"/><path class="cls-2" d="M53.62,37.67H48.37V36.43A2.59,2.59,0,0,1,51,33.75a2.67,2.67,0,0,1,2.67,2.68ZM51.81,42h0v2c0,.19-.19.48-.38.48h-1c-.19,0-.38-.29-.38-.48V42a1.21,1.21,0,0,1-.38-.86A1.16,1.16,0,0,1,50.85,40c.1-.1.1-.1.19,0a1.16,1.16,0,0,1,1.15,1.15,1.21,1.21,0,0,1-.38.86Zm3.92-4.3h-.28V36.43A4.56,4.56,0,0,0,51,31.84h-.19a4.56,4.56,0,0,0-4.4,4.59v1.24h-.19a1,1,0,0,0-.86,1v6.5a1,1,0,0,0,.86,1h9.46c.38,0,.76-.48.76-1v-6.5c0-.57-.38-1-.76-1Z"/></g></g></svg>