<svg xmlns="http://www.w3.org/2000/svg" xmlns:xlink="http://www.w3.org/1999/xlink" viewBox="0 0 269.1 153.49"><defs><style>.cls-1{fill:#369e76;}.cls-2{fill:url(#Degradado_sin_nombre);}.cls-3{font-size:138.02px;fill:#fff;font-family:GillSansMT-Condensed, Gill Sans MT Condensed;}.cls-4{fill:url(#Degradado_sin_nombre-2);}</style><linearGradient id="Degradado_sin_nombre" x1="37.5" y1="77.3" x2="200.51" y2="77.3" gradientUnits="userSpaceOnUse"><stop offset="0" stop-color="#fff"/><stop offset="1"/></linearGradient><linearGradient id="Degradado_sin_nombre-2" x1="124.5" y1="77.3" x2="377.98" y2="77.3" xlink:href="#Degradado_sin_nombre"/></defs><title>Recurso 1</title><g id="Capa_2" data-name="Capa 2"><g id="Capa_1-2" data-name="Capa 1"><polygon class="cls-1" points="124.37 105.75 62.19 141.01 0 105.75 0 35.25 62.19 0 124.37 35.25 124.37 105.75"/><path class="cls-2" d="M43.71,113.86V101.6q7.44,5.05,14.4,5.05A14.88,14.88,0,0,0,67,104q3.67-2.61,3.67-6.29a19.18,19.18,0,0,0-2.07-7.68q-2.07-4.51-11.16-16.68T45.59,55a28.27,28.27,0,0,1-2.73-11.05,18.57,18.57,0,0,1,7.39-15.2q7.39-5.9,18.88-5.9A44.18,44.18,0,0,1,83,25.24V36.43Q76.19,33.6,71.39,33.6q-12.52,0-12.52,8.76A19.13,19.13,0,0,0,61,50.14q2.12,4.55,11.2,16.58T84,85.05a29.05,29.05,0,0,1,2.68,11.15,18.7,18.7,0,0,1-7.39,15.33q-7.39,5.9-19.16,5.9A39.38,39.38,0,0,1,43.71,113.86Z"/><text class="cls-3" transform="translate(37.5 116.22) scale(1.4 1)">S</text><path class="cls-4" d="M196.23,66.69V112a53.58,53.58,0,0,1-22.78,5.46q-19.58,0-31-12.47T131.09,70.26q0-21.9,11-34.67t29.47-12.77q11.11,0,24.67,6.6V42.09q-13.84-9-23.91-9-24.67,0-24.67,37.13,0,36.19,26.17,36.19a48.32,48.32,0,0,0,5.84-.47V77.74H168.27V66.69Z"/><path class="cls-4" d="M265.43,99.78v12.47a39.84,39.84,0,0,1-19.68,5.19q-16.57,0-25.61-12.13t-9-34.64q0-22.51,9.08-35.18t25.94-12.67q8.09,0,17.79,4.79v12q-8.29-5.73-16.57-5.73-10,0-14.45,8.37t-4.47,27.88q0,19.31,4.52,27.78t15,8.48Q255.07,106.38,265.43,99.78Z"/><text class="cls-3" transform="translate(124.5 116.22) scale(1.4 1)">GC</text></g></g></svg>